# xmcd
#
# Track frame offsets: 
#        150
#        22670
#        37866
#        47877
#        62485
#        87477
#        103046
#        116848
#        137383
#        153846
#        164220
#        181368
#
# Disc length: 2589 seconds
#
# Revision: 1
# Processed by: cddbd v1.5.2PL0 Copyright (c) Steve Scherf et al.
# Submitted via: ExactAudioCopy v1.0b3
#
DISCID=950a1b0c
DTITLE=Arthur Lyman - Leis of Jazz
DYEAR=1900
DGENRE=Jazz
TTITLE0=The Lady is a Tramp
TTITLE1=On the Street Where You Live
TTITLE2=Leis of Jazz
TTITLE3=The Way You Look Tonight
TTITLE4=How High the Moon
TTITLE5=Trigger Fantasy
TTITLE6=Lullaby of the Leaves
TTITLE7=Body and Soul
TTITLE8=My Funny Valentine
TTITLE9=Gypsy In My Soul
TTITLE10=Aloha Oe
TTITLE11=Lullaby of Birdland
EXTD=
EXTT0=
EXTT1=
EXTT2=
EXTT3=
EXTT4=
EXTT5=
EXTT6=
EXTT7=
EXTT8=
EXTT9=
EXTT10=
EXTT11=
PLAYORDER=
